<svg id="visual" viewBox="0 0 960 540" width="960" height="540" xmlns="http://www.w3.org/2000/svg" xmlns:xlink="http://www.w3.org/1999/xlink" version="1.1"><rect x="0" y="0" width="960" height="540" fill="#dadada"></rect><path d="M0 155L12.3 187.7C24.7 220.3 49.3 285.7 74 321.8C98.7 358 123.3 365 148 332.8C172.7 300.7 197.3 229.3 221.8 189.2C246.3 149 270.7 140 295.2 160.2C319.7 180.3 344.3 229.7 369 227.5C393.7 225.3 418.3 171.7 443 184.8C467.7 198 492.3 278 517 293.8C541.7 309.7 566.3 261.3 591 222.3C615.7 183.3 640.3 153.7 664.8 178.5C689.3 203.3 713.7 282.7 738.2 293C762.7 303.3 787.3 244.7 812 243.5C836.7 242.3 861.3 298.7 886 321.7C910.7 344.7 935.3 334.3 947.7 329.2L960 324L960 541L947.7 541C935.3 541 910.7 541 886 541C861.3 541 836.7 541 812 541C787.3 541 762.7 541 738.2 541C713.7 541 689.3 541 664.8 541C640.3 541 615.7 541 591 541C566.3 541 541.7 541 517 541C492.3 541 467.7 541 443 541C418.3 541 393.7 541 369 541C344.3 541 319.7 541 295.2 541C270.7 541 246.3 541 221.8 541C197.3 541 172.7 541 148 541C123.3 541 98.7 541 74 541C49.3 541 24.7 541 12.3 541L0 541Z" fill="#4facf7"></path><path d="M0 246L12.3 265.5C24.7 285 49.3 324 74 347.5C98.7 371 123.3 379 148 382C172.7 385 197.3 383 221.8 358C246.3 333 270.7 285 295.2 254.3C319.7 223.7 344.3 210.3 369 198.3C393.7 186.3 418.3 175.7 443 202.2C467.7 228.7 492.3 292.3 517 314.5C541.7 336.7 566.3 317.3 591 308.2C615.7 299 640.3 300 664.8 297C689.3 294 713.7 287 738.2 266.3C762.7 245.7 787.3 211.3 812 212.7C836.7 214 861.3 251 886 255.8C910.7 260.7 935.3 233.3 947.7 219.7L960 206L960 541L947.7 541C935.3 541 910.7 541 886 541C861.3 541 836.7 541 812 541C787.3 541 762.7 541 738.2 541C713.7 541 689.3 541 664.8 541C640.3 541 615.7 541 591 541C566.3 541 541.7 541 517 541C492.3 541 467.7 541 443 541C418.3 541 393.7 541 369 541C344.3 541 319.7 541 295.2 541C270.7 541 246.3 541 221.8 541C197.3 541 172.7 541 148 541C123.3 541 98.7 541 74 541C49.3 541 24.7 541 12.3 541L0 541Z" fill="#6fb1f0"></path><path d="M0 291L12.3 302.2C24.7 313.3 49.3 335.7 74 354.5C98.7 373.3 123.3 388.7 148 390.5C172.7 392.3 197.3 380.7 221.8 357C246.3 333.3 270.7 297.7 295.2 302C319.7 306.3 344.3 350.7 369 361.5C393.7 372.3 418.3 349.7 443 338.3C467.7 327 492.3 327 517 327.7C541.7 328.3 566.3 329.7 591 337.7C615.7 345.7 640.3 360.3 664.8 376.3C689.3 392.3 713.7 409.7 738.2 416C762.7 422.3 787.3 417.7 812 415.3C836.7 413 861.3 413 886 387.8C910.7 362.7 935.3 312.3 947.7 287.2L960 262L960 541L947.7 541C935.3 541 910.7 541 886 541C861.3 541 836.7 541 812 541C787.3 541 762.7 541 738.2 541C713.7 541 689.3 541 664.8 541C640.3 541 615.7 541 591 541C566.3 541 541.7 541 517 541C492.3 541 467.7 541 443 541C418.3 541 393.7 541 369 541C344.3 541 319.7 541 295.2 541C270.7 541 246.3 541 221.8 541C197.3 541 172.7 541 148 541C123.3 541 98.7 541 74 541C49.3 541 24.7 541 12.3 541L0 541Z" fill="#87b7e9"></path><path d="M0 445L12.3 445.8C24.7 446.7 49.3 448.3 74 450.3C98.7 452.3 123.3 454.7 148 434C172.7 413.3 197.3 369.7 221.8 346.2C246.3 322.7 270.7 319.3 295.2 321.5C319.7 323.7 344.3 331.3 369 331.5C393.7 331.7 418.3 324.3 443 318.2C467.7 312 492.3 307 517 315.7C541.7 324.3 566.3 346.7 591 370.7C615.7 394.7 640.3 420.3 664.8 424.7C689.3 429 713.7 412 738.2 387.2C762.7 362.3 787.3 329.7 812 325.3C836.7 321 861.3 345 886 349.3C910.7 353.7 935.3 338.3 947.7 330.7L960 323L960 541L947.7 541C935.3 541 910.7 541 886 541C861.3 541 836.7 541 812 541C787.3 541 762.7 541 738.2 541C713.7 541 689.3 541 664.8 541C640.3 541 615.7 541 591 541C566.3 541 541.7 541 517 541C492.3 541 467.7 541 443 541C418.3 541 393.7 541 369 541C344.3 541 319.7 541 295.2 541C270.7 541 246.3 541 221.8 541C197.3 541 172.7 541 148 541C123.3 541 98.7 541 74 541C49.3 541 24.7 541 12.3 541L0 541Z" fill="#9bbce2"></path><path d="M0 363L12.3 361.8C24.7 360.7 49.3 358.3 74 359.3C98.7 360.3 123.3 364.7 148 360.3C172.7 356 197.3 343 221.8 350.7C246.3 358.3 270.7 386.7 295.2 389.2C319.7 391.7 344.3 368.3 369 364C393.7 359.7 418.3 374.3 443 396.5C467.7 418.7 492.3 448.3 517 446.3C541.7 444.3 566.3 410.7 591 393.2C615.7 375.7 640.3 374.3 664.8 377.2C689.3 380 713.7 387 738.2 380.8C762.7 374.7 787.3 355.3 812 353.7C836.7 352 861.3 368 886 366C910.7 364 935.3 344 947.7 334L960 324L960 541L947.7 541C935.3 541 910.7 541 886 541C861.3 541 836.7 541 812 541C787.3 541 762.7 541 738.2 541C713.7 541 689.3 541 664.8 541C640.3 541 615.7 541 591 541C566.3 541 541.7 541 517 541C492.3 541 467.7 541 443 541C418.3 541 393.7 541 369 541C344.3 541 319.7 541 295.2 541C270.7 541 246.3 541 221.8 541C197.3 541 172.7 541 148 541C123.3 541 98.7 541 74 541C49.3 541 24.7 541 12.3 541L0 541Z" fill="#adc1db"></path><path d="M0 386L12.3 387.7C24.7 389.3 49.3 392.7 74 404.2C98.7 415.7 123.3 435.3 148 444.8C172.7 454.3 197.3 453.7 221.8 456.3C246.3 459 270.7 465 295.2 468.3C319.7 471.7 344.3 472.3 369 468C393.7 463.7 418.3 454.3 443 445.8C467.7 437.3 492.3 429.7 517 418.5C541.7 407.3 566.3 392.7 591 406.3C615.7 420 640.3 462 664.8 480.5C689.3 499 713.7 494 738.2 474.2C762.7 454.3 787.3 419.7 812 418.5C836.7 417.3 861.3 449.7 886 466.8C910.7 484 935.3 486 947.7 487L960 488L960 541L947.7 541C935.3 541 910.7 541 886 541C861.3 541 836.7 541 812 541C787.3 541 762.7 541 738.2 541C713.7 541 689.3 541 664.8 541C640.3 541 615.7 541 591 541C566.3 541 541.7 541 517 541C492.3 541 467.7 541 443 541C418.3 541 393.7 541 369 541C344.3 541 319.7 541 295.2 541C270.7 541 246.3 541 221.8 541C197.3 541 172.7 541 148 541C123.3 541 98.7 541 74 541C49.3 541 24.7 541 12.3 541L0 541Z" fill="#bdc7d3"></path><path d="M0 445L12.3 443.2C24.7 441.3 49.3 437.7 74 450C98.7 462.3 123.3 490.7 148 501.3C172.7 512 197.3 505 221.8 495.7C246.3 486.3 270.7 474.7 295.2 477.2C319.7 479.7 344.3 496.3 369 504C393.7 511.7 418.3 510.3 443 504.5C467.7 498.7 492.3 488.3 517 491.8C541.7 495.3 566.3 512.7 591 511.2C615.7 509.7 640.3 489.3 664.8 481.2C689.3 473 713.7 477 738.2 472.2C762.7 467.3 787.3 453.7 812 463.2C836.7 472.7 861.3 505.3 886 507C910.7 508.7 935.3 479.3 947.7 464.7L960 450L960 541L947.7 541C935.3 541 910.7 541 886 541C861.3 541 836.7 541 812 541C787.3 541 762.7 541 738.2 541C713.7 541 689.3 541 664.8 541C640.3 541 615.7 541 591 541C566.3 541 541.7 541 517 541C492.3 541 467.7 541 443 541C418.3 541 393.7 541 369 541C344.3 541 319.7 541 295.2 541C270.7 541 246.3 541 221.8 541C197.3 541 172.7 541 148 541C123.3 541 98.7 541 74 541C49.3 541 24.7 541 12.3 541L0 541Z" fill="#cccccc"></path></svg>