<svg id="visual" viewBox="0 0 900 600" width="900" height="600" xmlns="http://www.w3.org/2000/svg" xmlns:xlink="http://www.w3.org/1999/xlink" version="1.1"><rect x="0" y="0" width="900" height="600" fill="#CCCCCC"></rect><path d="M0 361L21.5 367C43 373 86 385 128.8 386.7C171.7 388.3 214.3 379.7 257.2 379.2C300 378.7 343 386.3 385.8 384.5C428.7 382.7 471.3 371.3 514.2 373.7C557 376 600 392 642.8 393.8C685.7 395.7 728.3 383.3 771.2 390C814 396.7 857 422.3 878.5 435.2L900 448L900 601L878.5 601C857 601 814 601 771.2 601C728.3 601 685.7 601 642.8 601C600 601 557 601 514.2 601C471.3 601 428.7 601 385.8 601C343 601 300 601 257.2 601C214.3 601 171.7 601 128.8 601C86 601 43 601 21.5 601L0 601Z" fill="#75a2e5"></path><path d="M0 476L21.5 474.7C43 473.3 86 470.7 128.8 461C171.7 451.3 214.3 434.7 257.2 427.3C300 420 343 422 385.8 418.3C428.7 414.7 471.3 405.3 514.2 404.2C557 403 600 410 642.8 410.5C685.7 411 728.3 405 771.2 410.8C814 416.7 857 434.3 878.5 443.2L900 452L900 601L878.5 601C857 601 814 601 771.2 601C728.3 601 685.7 601 642.8 601C600 601 557 601 514.2 601C471.3 601 428.7 601 385.8 601C343 601 300 601 257.2 601C214.3 601 171.7 601 128.8 601C86 601 43 601 21.5 601L0 601Z" fill="#8aa7da"></path><path d="M0 502L21.5 493C43 484 86 466 128.8 456.3C171.7 446.7 214.3 445.3 257.2 446.8C300 448.3 343 452.7 385.8 456C428.7 459.3 471.3 461.7 514.2 467C557 472.3 600 480.7 642.8 482.7C685.7 484.7 728.3 480.3 771.2 481.2C814 482 857 488 878.5 491L900 494L900 601L878.5 601C857 601 814 601 771.2 601C728.3 601 685.7 601 642.8 601C600 601 557 601 514.2 601C471.3 601 428.7 601 385.8 601C343 601 300 601 257.2 601C214.3 601 171.7 601 128.8 601C86 601 43 601 21.5 601L0 601Z" fill="#9badcf"></path><path d="M0 493L21.5 496.8C43 500.7 86 508.3 128.8 510C171.7 511.7 214.3 507.3 257.2 505.5C300 503.7 343 504.3 385.8 507C428.7 509.7 471.3 514.3 514.2 512.3C557 510.3 600 501.7 642.8 495.7C685.7 489.7 728.3 486.3 771.2 491.3C814 496.3 857 509.7 878.5 516.3L900 523L900 601L878.5 601C857 601 814 601 771.2 601C728.3 601 685.7 601 642.8 601C600 601 557 601 514.2 601C471.3 601 428.7 601 385.8 601C343 601 300 601 257.2 601C214.3 601 171.7 601 128.8 601C86 601 43 601 21.5 601L0 601Z" fill="#aab2c4"></path><path d="M0 560L21.5 557.3C43 554.7 86 549.3 128.8 547.2C171.7 545 214.3 546 257.2 547.8C300 549.7 343 552.3 385.8 552.2C428.7 552 471.3 549 514.2 551.7C557 554.3 600 562.7 642.8 562.7C685.7 562.7 728.3 554.3 771.2 546.5C814 538.7 857 531.3 878.5 527.7L900 524L900 601L878.5 601C857 601 814 601 771.2 601C728.3 601 685.7 601 642.8 601C600 601 557 601 514.2 601C471.3 601 428.7 601 385.8 601C343 601 300 601 257.2 601C214.3 601 171.7 601 128.8 601C86 601 43 601 21.5 601L0 601Z" fill="#b8b8b8"></path></svg>